<svg id="Layer_1" data-name="Layer 1" xmlns="http://www.w3.org/2000/svg" viewBox="0 0 48 48"><defs><style>.cls-1,.cls-2{fill:#fff;}.cls-1,.cls-4,.cls-5{stroke:#ff0015;stroke-miterlimit:10;}.cls-1,.cls-4{stroke-width:2px;}.cls-3,.cls-5{fill:#ff0015;}.cls-4{fill:none;}</style></defs><title>Artboard 1 copy</title><rect class="cls-1" x="6" y="8" width="36" height="33" rx="3.32"/><rect class="cls-2" x="14.94" y="3" width="4.32" height="9" rx="1.82"/><path class="cls-3" d="M17.44,4a.82.82,0,0,1,.82.82v5.36a.82.82,0,0,1-.82.82h-.69a.82.82,0,0,1-.81-.82V4.82A.82.82,0,0,1,16.75,4h.69m0-2h-.69a2.81,2.81,0,0,0-2.81,2.82v5.36A2.81,2.81,0,0,0,16.75,13h.69a2.82,2.82,0,0,0,2.82-2.82V4.82A2.82,2.82,0,0,0,17.44,2Z"/><rect class="cls-2" x="28.87" y="3" width="4.32" height="9" rx="1.82"/><path class="cls-3" d="M31.37,4a.82.82,0,0,1,.82.82v5.36a.82.82,0,0,1-.82.82h-.69a.82.82,0,0,1-.81-.82V4.82A.82.82,0,0,1,30.68,4h.69m0-2h-.69a2.81,2.81,0,0,0-2.81,2.82v5.36A2.81,2.81,0,0,0,30.68,13h.69a2.82,2.82,0,0,0,2.82-2.82V4.82A2.82,2.82,0,0,0,31.37,2Z"/><line class="cls-4" x1="6" y1="17" x2="42" y2="17"/><rect class="cls-3" x="27" y="22" width="2" height="3"/><rect class="cls-3" x="31" y="22" width="2" height="3"/><rect class="cls-3" x="35" y="22" width="2" height="3"/><rect class="cls-3" x="11" y="26" width="2" height="3"/><rect class="cls-3" x="15" y="26" width="2" height="3"/><rect class="cls-3" x="19" y="26" width="2" height="3"/><rect class="cls-3" x="23" y="26" width="2" height="3"/><rect class="cls-3" x="27" y="26" width="2" height="3"/><rect class="cls-5" x="31" y="26" width="2" height="3"/><rect class="cls-3" x="35" y="26" width="2" height="3"/><rect class="cls-3" x="11" y="30" width="2" height="3"/><rect class="cls-3" x="15" y="30" width="2" height="3"/><rect class="cls-3" x="19" y="30" width="2" height="3"/><rect class="cls-3" x="23" y="30" width="2" height="3"/><rect class="cls-3" x="27" y="30" width="2" height="3"/><rect class="cls-3" x="31" y="30" width="2" height="3"/><rect class="cls-3" x="35" y="30" width="2" height="3"/><rect class="cls-3" x="11" y="34" width="2" height="3"/><rect class="cls-3" x="15" y="34" width="2" height="3"/><rect class="cls-3" x="19" y="34" width="2" height="3"/><rect class="cls-3" x="23" y="34" width="2" height="3"/><rect class="cls-3" x="27" y="34" width="2" height="3"/><rect class="cls-3" x="31" y="34" width="2" height="3"/></svg>